<svg width="85" height="126" viewBox="0 0 85 126" fill="none" xmlns="http://www.w3.org/2000/svg">
<path d="M31.4026 82.0756C9.26377 76.1435 -3.87441 53.3875 2.05768 31.2487C7.98976 9.10982 30.7457 -4.02836 52.8846 1.90373C75.0234 7.83581 88.1616 30.5918 82.2295 52.7306C76.2974 74.8695 53.5415 88.0077 31.4026 82.0756Z" fill="#FBFAF4" style="fill:#FBFAF4;fill:color(display-p3 0.9859 0.9785 0.9562);fill-opacity:1;"/>
<path d="M31.8977 123.792C9.75889 117.86 -3.37929 95.1038 2.5528 72.965C8.48488 50.8261 31.2409 37.6879 53.3797 43.62C75.5185 49.5521 88.6567 72.3081 82.7246 94.4469C76.7926 116.586 54.0366 129.724 31.8977 123.792Z" fill="#EBE9E2" style="fill:#EBE9E2;fill:color(display-p3 0.9206 0.9124 0.8879);fill-opacity:1;"/>
<path d="M44.4395 0.544808C25.227 -0.539134 7.23494 11.9268 2.05768 31.2487C-3.87441 53.3875 9.26377 76.1435 31.4026 82.0756C36.4267 83.4218 41.4825 83.7858 46.3663 83.2855H44.4395V0.544808Z" fill="#FBFAF4" style="fill:#FBFAF4;fill:color(display-p3 0.9859 0.9785 0.9562);fill-opacity:1;"/>
</svg>
