<svg width="144" height="37" viewBox="0 0 144 37" fill="none" xmlns="http://www.w3.org/2000/svg">
<path fill-rule="evenodd" clip-rule="evenodd" d="M102.556 2.00774C102.517 1.58774 102.4 1.11177 102.088 0.711242C101.742 0.267782 101.257 0.0425979 100.753 0.00562618C100.297 -0.0278153 99.8663 0.0926369 99.5123 0.23927C99.1468 0.390703 98.7768 0.6063 98.4134 0.855901C96.9874 1.8354 95.1987 3.66601 93.389 5.87436C89.7561 10.3076 85.715 16.666 83.9916 21.9136C83.579 23.17 83.0945 24.8236 82.9611 26.4729C82.9425 26.7027 82.9304 26.9367 82.9266 27.1732C82.6819 27.4155 82.4373 27.6622 82.1918 27.9162C82.1031 27.9593 82.0182 28.0141 81.9394 28.0806L81.895 28.1181C81.0808 28.8054 79.6138 30.0436 78.1583 30.9499C77.4105 31.4155 76.7412 31.7448 76.2155 31.8876C75.7927 32.0025 75.6409 31.9541 75.6122 31.9409C75.5693 31.9028 75.5472 31.8758 75.5368 31.861C75.5372 31.8572 75.5379 31.8523 75.5388 31.8465C75.5604 31.7137 75.6676 31.4732 75.9559 31.0518C76.0252 30.9504 76.117 30.8231 76.2184 30.6824C76.4342 30.3832 76.6932 30.024 76.871 29.7273C77.133 29.2902 77.5221 28.5337 77.3219 27.6829C77.1539 26.9687 76.8344 26.3222 76.272 25.8605C75.7071 25.3968 75.0424 25.2386 74.4182 25.2201C73.3745 25.1891 72.1136 25.553 70.8731 25.943C70.9039 25.5335 70.897 25.0843 70.8554 24.5849C70.7739 23.6059 70.2413 22.8629 69.5418 22.412C68.8692 21.9784 68.0566 21.8163 67.2976 21.8747C66.5345 21.9335 65.7314 22.2226 65.1035 22.8098C64.4533 23.4177 64.0624 24.2809 64.0624 25.3184C64.0624 26.3001 64.5068 27.5774 65.8017 28.3269C65.9367 28.4051 66.0778 28.4756 66.2249 28.5383C65.3977 29.1561 64.4175 29.7458 63.4136 30.247C61.8503 31.0275 60.3947 31.5109 59.5356 31.5991C58.5802 31.6971 58.0238 31.5539 57.6852 31.2657C57.3586 30.9877 56.9524 30.3322 56.8842 28.7196C56.9574 28.3508 56.8582 27.9533 56.5822 27.6573C56.1261 27.1682 55.3599 27.1415 54.8708 27.5976C52.5433 29.7681 50.7499 30.7915 48.0601 31.1933C46.952 31.3588 46.2104 31.2055 45.7491 30.9664C45.3062 30.7368 45.0424 30.3905 44.92 29.9653C44.6615 29.0674 45.0157 27.5826 46.4551 26.3073C47.7913 25.1234 49.118 24.7187 50.5296 24.7471C52.0045 24.7768 53.6272 25.2804 55.5124 26.0535C56.1311 26.3072 56.8384 26.0113 57.0921 25.3926C57.3458 24.7739 57.05 24.0666 56.4312 23.8129C54.4913 23.0174 52.5228 22.3651 50.5784 22.326C48.5708 22.2856 46.6502 22.8991 44.8492 24.4947C42.929 26.196 42.0042 28.5903 42.5928 30.6352C42.894 31.6815 43.5853 32.5725 44.6347 33.1164C45.6656 33.6508 46.9535 33.8071 48.4178 33.5884C50.9571 33.2091 52.8577 32.339 54.7661 30.8714C55.0304 31.8075 55.47 32.5604 56.1157 33.11C57.208 34.0395 58.5916 34.1303 59.7827 34.0081C61.0701 33.8761 62.8327 33.2437 64.4953 32.4137C66.1744 31.5754 67.9177 30.4526 69.1333 29.2249C69.1824 29.1753 69.2357 29.1229 69.2921 29.0674C69.3813 28.9796 69.4784 28.8841 69.5786 28.7805C70.0935 28.6922 70.6424 28.5565 71.2258 28.3713C72.7278 27.8948 73.6987 27.6215 74.3464 27.6407C74.6212 27.6488 74.7086 27.7103 74.7354 27.7323C74.7628 27.7547 74.8627 27.8487 74.948 28.1712C74.9352 28.2106 74.8984 28.3079 74.7938 28.4824C74.6608 28.7043 74.5234 28.8931 74.3572 29.1213L74.3571 29.1215L74.3567 29.122C74.2404 29.2819 74.1099 29.4611 73.9571 29.6845C73.6571 30.123 73.2638 30.7494 73.1486 31.4577C73.0865 31.8395 73.1014 32.261 73.258 32.688C73.4138 33.113 73.6839 33.4722 74.0258 33.7707C74.9035 34.537 76.0241 34.4492 76.8505 34.2246C77.7133 33.9901 78.6173 33.5168 79.4383 33.0056C80.8515 32.1257 82.2428 30.9887 83.1065 30.264C83.2217 30.2253 83.3321 30.169 83.4335 30.095L83.4486 30.1306C83.6347 30.5694 83.8253 31.0186 84.4382 31.5874C86.0089 32.7034 86.8536 32.9754 88.1135 32.8492C89.2905 32.7312 90.3375 32.0831 91.375 31.3877C92.8336 30.4102 94.0434 29.0097 95.1068 27.7085C95.2934 27.48 95.4752 27.2552 95.6533 27.035L95.6542 27.0339C95.912 26.7151 96.1621 26.4059 96.4082 26.1089C96.9078 26.5658 97.4755 26.855 98.1057 27.0125C98.8968 27.2103 99.7436 27.1876 100.553 27.1318C100.616 27.1275 100.677 27.123 100.736 27.1183C100.195 27.7095 99.6698 28.3657 99.3199 28.9842C99.1692 29.2506 99.0298 29.5463 98.9411 29.8552C98.8548 30.1561 98.7934 30.5497 98.8913 30.9679C98.9991 31.4284 99.2775 31.8169 99.6868 32.0726C100.06 32.3054 100.479 32.3914 100.86 32.4158C102.258 32.5055 103.658 31.974 104.757 31.4513C105.324 31.1817 105.858 30.89 106.314 30.6404L106.324 30.6348C106.693 30.433 106.992 30.2695 107.239 30.1474C107.237 30.1932 107.236 30.2401 107.238 30.2879C107.268 31.0198 107.787 31.4177 108.084 31.5818C108.392 31.7513 108.739 31.8379 109.026 31.8899C109.333 31.9453 109.67 31.978 110.011 31.9968C111.356 32.0709 113.14 31.9458 114.341 31.8353C114.437 31.8265 114.53 31.8114 114.618 31.7911C114.633 31.9956 114.701 32.4542 115.112 32.7963C115.573 33.1813 116.092 33.119 116.332 33.0579C116.575 32.9958 116.776 32.8813 116.901 32.8023C117.04 32.7141 117.177 32.6115 117.302 32.5109C117.619 32.2554 118.027 31.8739 118.437 31.4911L118.437 31.4909C118.623 31.3171 118.81 31.1431 118.988 30.9805C119.614 30.4088 120.217 29.902 120.736 29.5957C120.995 29.4432 121.171 29.3785 121.271 29.3583L121.272 29.3581C121.673 29.6005 121.796 29.7965 121.846 29.9082C121.911 30.0513 121.94 30.2419 121.925 30.6113C121.922 30.6831 121.915 30.769 121.908 30.8668C121.852 31.5635 121.749 32.8634 122.71 33.9403C123.553 34.8834 124.754 35.3917 126.051 35.6618C127.356 35.9333 128.884 35.9902 130.529 35.9286C133.331 35.8236 136.678 35.3629 140.166 34.8828C140.763 34.8007 141.364 34.718 141.966 34.6364C142.629 34.5468 143.093 33.9369 143.004 33.2742C142.914 32.6115 142.304 32.147 141.641 32.2366C141.024 32.3201 140.415 32.4039 139.814 32.4866C136.314 32.9678 133.109 33.4086 130.439 33.5086C128.879 33.567 127.573 33.505 126.545 33.2909C125.509 33.0754 124.878 32.7313 124.517 32.3274C124.281 32.0632 124.29 31.8798 124.324 31.1628C124.331 31.0301 124.338 30.8791 124.345 30.706C124.364 30.2297 124.354 29.5812 124.056 28.9173C123.747 28.2285 123.197 27.6661 122.396 27.2106C121.85 26.8993 121.272 26.8874 120.791 26.9846C120.324 27.0791 119.885 27.2865 119.506 27.5098C118.751 27.9551 117.988 28.6144 117.356 29.1917C117.335 29.2107 117.314 29.2295 117.294 29.2482L117.268 29.2721C117.237 29.3002 117.207 29.3281 117.177 29.3557L117.214 28.7221L117.132 28.491C117.097 28.3932 117.04 28.252 116.947 28.1092C116.863 27.9819 116.661 27.7147 116.284 27.5804C115.84 27.4219 115.439 27.5436 115.19 27.6949C114.978 27.8236 114.848 27.9851 114.789 28.0633C114.667 28.2257 114.576 28.4118 114.527 28.5121C114.509 28.5499 114.464 28.6447 114.424 28.7298C114.394 28.7942 114.366 28.8531 114.354 28.8773C114.234 29.1277 114.134 29.3022 114.042 29.4117C114.037 29.4173 114.033 29.4223 114.029 29.4268L114.024 29.4325C112.84 29.5392 111.266 29.6406 110.144 29.5788C110.118 29.5774 110.092 29.5758 110.067 29.5742C110.104 29.3516 110.102 29.1131 110.039 28.865C109.864 28.17 109.322 27.813 108.903 27.6596C108.123 27.3747 107.166 27.5211 106.441 27.8463C106.071 28.0127 105.639 28.2489 105.221 28.4781L105.221 28.4782L105.151 28.5162C104.691 28.7679 104.213 29.0283 103.717 29.2644C102.92 29.6432 102.185 29.9051 101.546 29.9813C101.975 29.3124 102.737 28.4844 103.442 27.8282C103.858 27.441 104.376 27.1697 104.876 26.9082C104.966 26.8607 105.057 26.8134 105.146 26.7659C105.271 26.6989 105.433 26.6098 105.574 26.51C105.645 26.46 105.749 26.3803 105.851 26.2709C105.94 26.1746 106.123 25.9542 106.19 25.6168C106.272 25.2027 106.141 24.8176 105.914 24.5463C105.729 24.325 105.513 24.2153 105.402 24.1657C105.174 24.0637 104.922 24.0152 104.734 23.9852L104.586 23.9614L104.436 23.9747C103.757 24.0352 103.252 24.1783 102.811 24.3025C102.73 24.3253 102.888 24.2815 102.811 24.3025C102.321 24.4352 101.48 24.6405 100.387 24.7159C99.6006 24.7701 99.0851 24.7612 98.693 24.6631C98.4787 24.6096 98.2914 24.527 98.1128 24.3824C98.1711 24.2975 98.2427 24.2039 98.3234 24.1081C98.4045 24.0117 98.4755 23.9355 98.5212 23.8879L98.5371 23.8727C98.5722 23.8394 98.6051 23.8074 98.6311 23.7807C98.6341 23.7777 98.6381 23.7735 98.6429 23.7686C98.6486 23.7626 98.6553 23.7555 98.6626 23.7476C98.6688 23.7408 98.6809 23.7275 98.6953 23.7106L98.6957 23.7101C98.7007 23.7043 98.7486 23.6489 98.7965 23.5732C98.8122 23.5478 98.8482 23.4832 98.8679 23.4436C98.8969 23.3774 98.9568 23.1826 98.9778 23.0525C98.9766 22.7862 98.7129 22.1606 98.396 21.8862C98.1054 21.7604 97.6338 21.7222 97.478 21.7507C97.2739 21.8021 97.1306 21.8989 97.1302 21.8992C97.0909 21.9238 97.0615 21.9455 97.0484 21.9552C97.003 21.9891 96.9682 22.0204 96.9662 22.0222C96.9335 22.0512 96.8835 22.099 96.8224 22.1612C96.7643 22.2155 96.6762 22.2966 96.5515 22.4086C95.5468 23.3108 94.6108 24.4702 93.7336 25.5567L93.7318 25.5589C93.5629 25.7681 93.3962 25.9747 93.2316 26.1761C92.1662 27.4798 91.1549 28.62 90.0267 29.3761C88.9428 30.1026 88.3662 30.39 87.8721 30.4395C87.4791 30.4789 86.566 30.5031 85.9833 29.7133L85.9624 29.685L85.9422 29.6578C85.6364 29.2449 85.2171 28.6789 85.3991 28.1504C85.6393 27.9202 85.883 27.6887 86.1307 27.4533C88.7126 24.9997 91.7381 22.1247 95.9692 15.8699C96.2831 15.4059 96.6253 14.9138 96.9826 14.3999L96.9833 14.3989C98.0204 12.9072 99.1855 11.2314 100.16 9.52405C101.469 7.22856 102.562 4.67066 102.562 2.11989V2.06369L102.556 2.00774ZM93.9634 14.513C90.5269 19.5932 88.0057 22.2722 85.7685 24.4425C85.9252 23.8262 86.1095 23.226 86.2924 22.6692C87.8871 17.8134 91.7302 11.7193 95.2621 7.40929C97.0348 5.24601 98.6486 3.63229 99.7845 2.85205C99.9081 2.76717 100.02 2.69647 100.12 2.63832C99.9868 4.40613 99.1936 6.33043 98.0562 8.32395C97.1403 9.92925 96.0697 11.4693 95.0487 12.938C94.6771 13.4726 94.312 13.9977 93.9634 14.513ZM113.99 29.4654C113.99 29.4654 113.991 29.4644 113.993 29.463C113.991 29.4647 113.99 29.4654 113.99 29.4654ZM68.298 26.4833C68.4143 26.2258 68.524 25.7681 68.4421 24.786C68.4297 24.6367 68.3683 24.5368 68.2297 24.4474C68.0643 24.3408 67.7948 24.2653 67.4834 24.2893C67.1761 24.3129 66.9205 24.4262 66.7575 24.5786C66.6166 24.7104 66.4841 24.9242 66.4841 25.3184C66.4841 25.63 66.622 26.0036 67.0148 26.231C67.2448 26.3641 67.6462 26.4965 68.298 26.4833ZM75.6069 31.938C75.6069 31.938 75.6082 31.9386 75.6103 31.9401C75.6079 31.9389 75.6069 31.938 75.6069 31.938ZM75.5288 31.848C75.5288 31.848 75.5294 31.8488 75.5301 31.8506C75.5292 31.8489 75.5288 31.848 75.5288 31.848Z" fill="#0C0C0C" style="fill:#0C0C0C;fill:color(display-p3 0.0453 0.0453 0.0453);fill-opacity:1;"/>
<path d="M2.22473 36.4249C4.14784 33.2736 9.97953 25.9228 15.1186 20.2393C17.6096 17.4844 19.8682 15.1999 21.3971 13.9862C21.3421 14.1858 21.2874 14.3838 21.2332 14.5799L21.2321 14.5838C20.6083 16.8398 20.0532 18.8478 19.9046 20.3418C19.8153 21.2388 19.8355 22.2262 20.3006 23.0194C20.8442 23.9465 21.7878 24.2985 22.8025 24.2985C23.1642 24.2985 23.512 24.1766 23.7472 24.0821C24.0179 23.9734 24.3167 23.8255 24.6276 23.6569C25.2515 23.3186 26.0132 22.8481 26.8513 22.3051C28.0445 21.5319 29.4472 20.5759 30.9026 19.584L30.9028 19.5838C31.4906 19.1832 32.0871 18.7767 32.6818 18.374C34.7672 16.962 36.8393 15.5913 38.5405 14.6114C39.3935 14.12 40.1202 13.7463 40.689 13.5153C40.7435 13.4932 40.7956 13.4727 40.8452 13.454C40.7975 13.822 40.7045 14.2975 40.5631 14.8804C40.2032 16.365 39.6005 18.277 38.9495 20.3421C38.8536 20.6462 38.7567 20.9537 38.6593 21.2635C37.9117 23.6434 37.1435 26.1548 36.7045 28.2497C36.4855 29.2947 36.3367 30.2888 36.3259 31.1398C36.3159 31.9277 36.4154 32.8723 36.9737 33.5575C37.6372 34.3717 38.4185 34.8876 39.2738 35.0528C40.13 35.2182 40.9206 35.0046 41.5405 34.6171C42.1025 34.2658 42.2734 33.5254 41.9221 32.9634C41.5708 32.4013 40.8304 32.2305 40.2683 32.5818C40.0881 32.6944 39.9082 32.7307 39.7291 32.6962C39.5731 32.666 39.3681 32.6184 39.0557 32.2805C38.9505 32.1667 38.8644 32.0335 38.8357 31.8812C38.7986 31.6836 38.7938 31.4382 38.7964 31.2349C38.8044 30.61 38.8476 29.7253 39.0537 28.7419C39.4648 26.7802 40.1967 24.3785 40.9492 21.9829C41.045 21.678 41.1412 21.3729 41.2371 21.0689C41.8838 19.0184 42.5151 17.0164 42.8958 15.4459C43.1117 14.5553 43.2707 13.7123 43.2826 13.0407C43.2884 12.7133 43.263 12.3151 43.1174 11.9441C42.9549 11.5298 42.5994 11.0699 41.9705 10.9269C41.565 10.8348 41.1611 10.8829 40.8404 10.9518C40.5018 11.0246 40.1444 11.1458 39.7858 11.2914C39.0684 11.5828 38.2326 12.0187 37.3424 12.5315C35.5571 13.5599 33.4195 14.9758 31.336 16.3865C30.7245 16.8006 30.1182 17.2138 29.5252 17.618L29.5244 17.6185C28.0799 18.6031 26.7145 19.5337 25.5461 20.2907C24.7225 20.8244 24.0235 21.2541 23.4835 21.5469C23.2126 21.6938 23.0036 21.7942 22.8526 21.8548C22.7967 21.8773 22.7586 21.8902 22.7361 21.8972C22.5371 21.8908 22.4421 21.8564 22.4089 21.8405C22.3881 21.8306 22.3839 21.8271 22.3711 21.8054C22.3103 21.7016 22.2144 21.3701 22.293 20.5794C22.4193 19.3098 22.9005 17.5653 23.5206 15.3168C23.6611 14.8077 23.8086 14.2727 23.9608 13.7115C24.0949 13.2169 24.1912 12.6786 24.1137 12.191C24.0722 11.9302 23.9687 11.6053 23.7179 11.3216C23.4505 11.0191 23.1046 10.8641 22.7688 10.8173C22.1984 10.7378 21.6665 10.9677 21.3297 11.142C20.9386 11.3443 20.5167 11.6323 20.0839 11.966C18.3673 13.2899 15.9141 15.7807 13.3383 18.6295C8.17508 24.3396 2.21983 31.8252 0.175863 35.1745C-0.169407 35.7403 0.00935079 36.4789 0.57513 36.8241C1.14091 37.1694 1.87946 36.9906 2.22473 36.4249Z" fill="#0C0C0C" style="fill:#0C0C0C;fill:color(display-p3 0.0453 0.0453 0.0453);fill-opacity:1;"/>
</svg>
