<svg width="512" height="512" viewBox="0 0 512 512" fill="none" xmlns="http://www.w3.org/2000/svg">
<path d="M0 241.778C0 108.248 108.248 0 241.778 0H270.222C403.752 0 512 108.248 512 241.778V270.222C512 403.752 403.752 512 270.222 512H241.778C108.248 512 0 403.752 0 270.222V241.778Z" fill="#202225" style="fill:#202225;fill:color(display-p3 0.1273 0.1350 0.1438);fill-opacity:1;"/>
<path d="M256 87.7715C163.099 87.7715 87.7714 163.099 87.7714 256C87.7714 348.901 163.099 424.229 256 424.229C348.901 424.229 424.229 348.901 424.229 256C424.229 163.099 348.901 87.7715 256 87.7715ZM171.886 221.829C171.982 217.112 173.923 212.621 177.293 209.319C180.663 206.018 185.193 204.168 189.91 204.168C194.628 204.168 199.158 206.018 202.527 209.319C205.897 212.621 207.838 217.112 207.935 221.829C207.838 226.545 205.897 231.036 202.527 234.338C199.158 237.64 194.628 239.489 189.91 239.489C185.193 239.489 180.663 237.64 177.293 234.338C173.923 231.036 171.982 226.545 171.886 221.829ZM256 323.967C223.894 323.967 197.571 298.696 195.918 267.04C195.898 266.633 195.961 266.226 196.102 265.844C196.244 265.462 196.462 265.113 196.743 264.818C197.024 264.523 197.362 264.288 197.737 264.128C198.112 263.968 198.515 263.885 198.922 263.886H216.984C218.562 263.886 219.913 265.087 220.026 266.665C221.453 285.252 237.037 299.935 256 299.935C274.963 299.935 290.584 285.252 291.974 266.665C292.087 265.087 293.438 263.886 295.016 263.886H313.078C313.485 263.885 313.888 263.968 314.263 264.128C314.638 264.288 314.976 264.523 315.257 264.818C315.538 265.113 315.756 265.462 315.898 265.844C316.039 266.226 316.102 266.633 316.082 267.04C314.429 298.696 288.106 323.967 256 323.967ZM322.09 239.853C317.373 239.757 312.882 237.816 309.58 234.446C306.279 231.076 304.429 226.546 304.429 221.829C304.429 217.111 306.279 212.581 309.58 209.211C312.882 205.842 317.373 203.9 322.09 203.804C326.806 203.9 331.298 205.842 334.599 209.211C337.901 212.581 339.75 217.111 339.75 221.829C339.75 226.546 337.901 231.076 334.599 234.446C331.298 237.816 326.806 239.757 322.09 239.853Z" fill="#EBE9E2" style="fill:#EBE9E2;fill:color(display-p3 0.9216 0.9137 0.8863);fill-opacity:1;"/>
</svg>
