<svg width="171" height="120" viewBox="0 0 171 120" fill="none" xmlns="http://www.w3.org/2000/svg">
<path fill-rule="evenodd" clip-rule="evenodd" d="M84.1304 0.0911176C37.6083 0.724819 0.0674235 11.6913 0.233998 24.6153C0.29085 29.0262 4.73267 33.096 12.4092 36.5212C4.82346 40.1431 0.487979 44.3261 0.54483 48.737C0.601684 53.1479 5.04358 57.2177 12.7203 60.643C5.13447 64.2649 0.798981 68.4478 0.855834 72.8588C1.02268 85.8038 38.9568 95.8106 85.584 95.2097C110.631 94.8868 133.092 91.5686 148.492 86.5596C153.477 88.1446 157.35 89.865 160.054 91.5905C161.804 92.707 162.831 93.679 163.378 94.4015C163.639 94.7469 163.758 94.9922 163.812 95.1318C163.861 95.2611 163.862 95.3211 163.862 95.3388C163.863 95.3564 163.863 95.4165 163.817 95.547C163.767 95.6879 163.654 95.9362 163.402 96.2882C162.874 97.0246 161.872 98.0227 160.152 99.184C156.689 101.521 151.245 103.901 143.936 106.032C129.456 110.254 109.071 113.098 86.2555 113.409L86.3377 119.781C132.86 119.147 170.401 108.181 170.234 95.2566C170.176 90.7306 165.501 86.5637 157.451 83.0838C165.28 79.4195 169.766 75.1689 169.708 70.6824C169.651 66.2715 165.209 62.2017 157.533 58.7765C165.118 55.1545 169.454 50.9716 169.397 46.5607C169.23 33.6156 131.296 23.6088 84.6688 24.2098C59.301 24.5367 36.5864 27.9362 21.1737 33.0528C16.5737 31.5405 12.9712 29.9133 10.414 28.2815C8.66424 27.165 7.63755 26.1929 7.09049 25.4704C6.82901 25.1251 6.70966 24.8797 6.65655 24.7401C6.60737 24.6109 6.60601 24.5509 6.60578 24.5332C6.60555 24.5155 6.60537 24.4555 6.6512 24.325C6.7007 24.1841 6.81368 23.9358 7.06617 23.5838C7.59443 22.8474 8.59573 21.8492 10.3161 20.688C13.7786 18.3508 19.223 15.9712 26.5319 13.8403C41.0121 9.61842 61.3975 6.77402 84.2126 6.4629L84.1304 0.0911176ZM148.398 79.8671C153.244 78.1746 157.003 76.38 159.626 74.6098C161.346 73.4485 162.348 72.4504 162.876 71.714C163.128 71.362 163.241 71.1137 163.291 70.9728C163.337 70.8423 163.336 70.7822 163.336 70.7646C163.336 70.7469 163.335 70.6869 163.285 70.5576C163.232 70.418 163.113 70.1727 162.852 69.8273C162.304 69.1048 161.278 68.1328 159.528 67.0163C156.971 65.3845 153.368 63.7573 148.768 62.2448C133.355 67.3615 110.641 70.7609 85.273 71.0879C59.9053 71.4148 37.1107 68.602 21.5712 63.8843C17.0117 65.5148 13.4523 67.2343 10.9379 68.9314C9.21756 70.0927 8.21626 71.0908 7.68801 71.8272C7.43551 72.1792 7.32253 72.4275 7.27304 72.5684C7.2272 72.6989 7.22739 72.759 7.22761 72.7766C7.22784 72.7943 7.2292 72.8543 7.27839 72.9836C7.33149 73.1232 7.45084 73.3685 7.71233 73.7139C8.25938 74.4364 9.28607 75.4084 11.0358 76.5249C13.7399 78.2504 17.6129 79.9708 22.5981 81.5558C37.9976 76.5468 60.4584 73.2286 85.5059 72.9057C110.436 72.5844 132.882 75.2956 148.398 79.8671ZM35.1206 84.7302C48.8878 87.5062 66.369 89.0845 85.5019 88.8379C104.732 88.59 122.247 86.5422 135.969 83.3852C122.202 80.6092 104.721 79.0309 85.588 79.2775C66.3578 79.5254 48.843 81.5732 35.1206 84.7302ZM10.6269 44.8097C13.1413 43.1125 16.7007 41.393 21.2602 39.7626C36.7996 44.4802 59.5944 47.2932 84.9622 46.9662C110.33 46.6392 133.045 43.2398 148.457 38.1231C153.057 39.6355 156.66 41.2627 159.217 42.8945C160.967 44.011 161.993 44.983 162.541 45.7056C162.802 46.0509 162.921 46.2963 162.974 46.4358C163.024 46.5651 163.025 46.6251 163.025 46.6428C163.025 46.6605 163.026 46.7205 162.98 46.851C162.93 46.9919 162.817 47.2402 162.565 47.5922C162.037 48.3286 161.035 49.3268 159.315 50.488C156.801 52.1852 153.241 53.9047 148.682 55.5351C133.142 50.8175 110.348 48.0046 84.9798 48.3316C59.612 48.6585 36.8975 52.058 21.4847 57.1746C16.8847 55.6622 13.2821 54.035 10.7248 52.4032C8.97507 51.2867 7.94838 50.3146 7.40132 49.5921C7.13984 49.2467 7.02049 49.0014 6.96738 48.8618C6.9182 48.7326 6.91684 48.6725 6.91661 48.6549C6.91638 48.6372 6.9162 48.5772 6.96203 48.4467C7.01153 48.3058 7.12451 48.0574 7.37701 47.7055C7.90526 46.9691 8.90656 45.9709 10.6269 44.8097ZM84.751 30.5816C104.418 30.3281 122.341 32.0029 136.278 34.9247C122.421 38.2047 104.548 40.3409 84.8801 40.5944C65.2126 40.8479 47.2904 39.1731 33.3535 36.2513C47.2105 32.9712 65.0835 30.8351 84.751 30.5816ZM136.588 59.0464C122.731 62.3264 104.858 64.4626 85.1909 64.7161C65.5236 64.9696 47.6015 63.2948 33.6646 60.373C47.5216 57.093 65.3946 54.9568 85.062 54.7033C104.729 54.4498 122.651 56.1247 136.588 59.0464Z" fill="#EBE9E2" style="fill:#EBE9E2;fill:color(display-p3 0.9206 0.9124 0.8879);fill-opacity:1;"/>
</svg>
